<mxfile host="app.diagrams.net" agent="Mozilla/5.0 (Windows NT 10.0; Win64; x64) AppleWebKit/537.36 (KHTML, like Gecko) Chrome/127.0.0.0 Safari/537.36" version="24.7.6">
  <diagram name="Página-1" id="I8peEle3WvcgB81I4vvq">
    <mxGraphModel dx="887" dy="826" grid="1" gridSize="10" guides="1" tooltips="1" connect="1" arrows="1" fold="1" page="1" pageScale="1" pageWidth="827" pageHeight="1169" math="0" shadow="0">
      <root>
        <mxCell id="0" />
        <mxCell id="1" parent="0" />
        <mxCell id="YY1_GQxIQ998cvImlTGy-1" value="&lt;font style=&quot;font-size: 13px;&quot;&gt;Início&lt;/font&gt;" style="ellipse;whiteSpace=wrap;html=1;" vertex="1" parent="1">
          <mxGeometry x="317.18" y="200" width="120.63" height="80" as="geometry" />
        </mxCell>
        <mxCell id="YY1_GQxIQ998cvImlTGy-19" style="edgeStyle=orthogonalEdgeStyle;rounded=0;orthogonalLoop=1;jettySize=auto;html=1;" edge="1" parent="1" source="YY1_GQxIQ998cvImlTGy-2" target="YY1_GQxIQ998cvImlTGy-8">
          <mxGeometry relative="1" as="geometry" />
        </mxCell>
        <mxCell id="YY1_GQxIQ998cvImlTGy-24" value="" style="edgeStyle=orthogonalEdgeStyle;rounded=0;orthogonalLoop=1;jettySize=auto;html=1;" edge="1" parent="1" source="YY1_GQxIQ998cvImlTGy-2" target="YY1_GQxIQ998cvImlTGy-9">
          <mxGeometry relative="1" as="geometry" />
        </mxCell>
        <mxCell id="YY1_GQxIQ998cvImlTGy-2" value="&lt;font style=&quot;font-size: 13px;&quot;&gt;final double m &amp;lt;- (p1, p2, p3, p4) / 4&lt;/font&gt;" style="rounded=0;whiteSpace=wrap;html=1;" vertex="1" parent="1">
          <mxGeometry x="266.25" y="470" width="222.5" height="60" as="geometry" />
        </mxCell>
        <mxCell id="YY1_GQxIQ998cvImlTGy-23" style="edgeStyle=orthogonalEdgeStyle;rounded=0;orthogonalLoop=1;jettySize=auto;html=1;entryX=0.5;entryY=0;entryDx=0;entryDy=0;" edge="1" parent="1" source="YY1_GQxIQ998cvImlTGy-8" target="YY1_GQxIQ998cvImlTGy-22">
          <mxGeometry relative="1" as="geometry" />
        </mxCell>
        <mxCell id="YY1_GQxIQ998cvImlTGy-8" value="&lt;font style=&quot;font-size: 13px;&quot;&gt;System.out.println(&quot;Média é&quot;, m)&lt;/font&gt;" style="shape=display;whiteSpace=wrap;html=1;" vertex="1" parent="1">
          <mxGeometry x="260" y="580" width="235" height="110" as="geometry" />
        </mxCell>
        <mxCell id="YY1_GQxIQ998cvImlTGy-14" style="edgeStyle=orthogonalEdgeStyle;rounded=0;orthogonalLoop=1;jettySize=auto;html=1;" edge="1" parent="1" source="YY1_GQxIQ998cvImlTGy-9" target="YY1_GQxIQ998cvImlTGy-2">
          <mxGeometry relative="1" as="geometry" />
        </mxCell>
        <mxCell id="YY1_GQxIQ998cvImlTGy-9" value="&lt;font style=&quot;font-size: 12px;&quot;&gt;Scanner (p1, p2, p3, p4)&lt;/font&gt;" style="shape=manualInput;whiteSpace=wrap;html=1;" vertex="1" parent="1">
          <mxGeometry x="302.5" y="310" width="150" height="110" as="geometry" />
        </mxCell>
        <mxCell id="YY1_GQxIQ998cvImlTGy-21" style="edgeStyle=orthogonalEdgeStyle;rounded=0;orthogonalLoop=1;jettySize=auto;html=1;entryX=0.504;entryY=0.113;entryDx=0;entryDy=0;entryPerimeter=0;" edge="1" parent="1" source="YY1_GQxIQ998cvImlTGy-1" target="YY1_GQxIQ998cvImlTGy-9">
          <mxGeometry relative="1" as="geometry" />
        </mxCell>
        <mxCell id="YY1_GQxIQ998cvImlTGy-22" value="&lt;font style=&quot;font-size: 13px;&quot;&gt;Fim&lt;/font&gt;" style="ellipse;whiteSpace=wrap;html=1;" vertex="1" parent="1">
          <mxGeometry x="317.19" y="740" width="120.63" height="80" as="geometry" />
        </mxCell>
      </root>
    </mxGraphModel>
  </diagram>
</mxfile>
